<?xml version="1.0" encoding="UTF-8"?>
<!DOCTYPE svg PUBLIC "-//W3C//DTD SVG 1.1//EN" "http://www.w3.org/Graphics/SVG/1.1/DTD/svg11.dtd">
<!-- Creator: CorelDRAW 2021 (64-Bit) -->
<svg xmlns="http://www.w3.org/2000/svg" xml:space="preserve" width="40mm" height="40mm" version="1.1" style="shape-rendering:geometricPrecision; text-rendering:geometricPrecision; image-rendering:optimizeQuality; fill-rule:evenodd; clip-rule:evenodd"
viewBox="0 0 4000 4000"
 xmlns:xlink="http://www.w3.org/1999/xlink"
 xmlns:xodm="http://www.corel.com/coreldraw/odm/2003">
 <defs>
  <style type="text/css">
   <![CDATA[
    .fil0 {fill:url(#id0)}
   ]]>
  </style>
  <linearGradient id="id0" gradientUnits="objectBoundingBox" x1="22.6663%" y1="71.7643%" x2="104.056%" y2="26.6013%">
   <stop offset="0" style="stop-opacity:1; stop-color:#8316F7"/>
   <stop offset="1" style="stop-opacity:1; stop-color:#BD24FF"/>
  </linearGradient>
 </defs>
 <g id="Warstwa_x0020_1">
  <metadata id="CorelCorpID_0Corel-Layer"/>
  <path class="fil0" d="M575.34 457.9l20.71 0c75.14,0 139.81,28.27 190.84,83.42l2802.53 3028.7c71.74,77.54 89.71,183.93 47.4,280.72 -42.31,96.79 -132.61,155.86 -238.24,155.86l-110.39 0c-76.61,0 -142.55,-29.47 -193.66,-86.53l-2712.86 -3028.7c-69.99,-78.14 -86.51,-183.76 -43.72,-279.53 42.8,-95.78 132.49,-153.94 237.39,-153.94z"/>
  <path class="fil0" d="M568.6 4006.6l289.15 0c78.99,0 146.98,-31.45 198.13,-91.64l2573.54 -3028.7c67.15,-79.03 81.38,-183.38 37.85,-277.5 -43.54,-94.13 -132.27,-150.86 -235.98,-150.86l-196.97 0c-77.4,0 -144.03,30.12 -195.17,88.22l-2665.72 3028.7c-69.04,78.44 -84.79,183.65 -41.75,278.87 43.04,95.22 132.42,152.91 236.92,152.91z"/>
 </g>
</svg>
